<?xml version="1.0" encoding="UTF-8"?>
<svg version="1.1" xmlns="http://www.w3.org/2000/svg" width="191" height="192">
<path d="M0 0 C63.03 0 126.06 0 191 0 C191 63.36 191 126.72 191 192 C127.97 192 64.94 192 0 192 C0 128.64 0 65.28 0 0 Z " fill="#E3E0DB" transform="translate(0,0)"/>
<path d="M0 0 C4.02191631 2.08732365 6.56023963 4.0121331 8.1015625 8.2734375 C8.92746127 18.98435238 7.30979041 29.99351791 6.38330078 40.66162109 C5.52983452 50.56453916 4.85995227 60.32491263 5.1015625 70.2734375 C5.5980127 69.19751343 5.5980127 69.19751343 6.10449219 68.09985352 C9.1757721 61.44946506 12.25980858 54.805247 15.35829163 48.16749573 C16.8478859 44.97405536 18.3315275 41.77819499 19.79833984 38.57421875 C21.3654 35.15517841 22.95042542 31.74499392 24.5390625 28.3359375 C25.00989258 27.29574463 25.48072266 26.25555176 25.96582031 25.18383789 C28.6111494 19.55994302 30.77069011 15.61232167 36.1015625 12.2734375 C40.23303167 11.24226621 43.99568532 11.83108663 47.9140625 13.3984375 C51.24200863 16.25096276 53.73489603 18.81959266 54.40625 23.3125 C54.22374645 30.69085801 49.80950849 35.01383813 45.1015625 40.2734375 C43.3252864 42.35245749 41.55466074 44.43542567 39.7890625 46.5234375 C39.32669189 47.06548828 38.86432129 47.60753906 38.38793945 48.16601562 C34.47196809 52.7738333 30.74848038 57.51682678 27.04052734 62.29248047 C23.25968075 67.13553224 19.2701506 71.75846242 15.1015625 76.2734375 C18.72105716 75.5776292 21.59703453 74.07087319 24.828125 72.32421875 C26.50068359 71.42219727 26.50068359 71.42219727 28.20703125 70.50195312 C28.78630371 70.18653564 29.36557617 69.87111816 29.96240234 69.54614258 C31.69741276 68.60180325 33.43656753 67.66509107 35.17578125 66.72851562 C41.18934604 63.47318176 47.11237757 60.11529485 52.95703125 56.56616211 C67.13527919 48.0195065 67.13527919 48.0195065 74.1015625 49.2734375 C77.87443843 50.60504077 79.81453151 51.96432721 82.5390625 54.8984375 C84.55626347 59.25559161 84.74228049 62.73689007 83.1015625 67.2734375 C79.59851328 72.52801133 76.59024737 74.32153917 70.4140625 75.7109375 C68.80843364 76.11394596 67.2029753 76.5176342 65.59765625 76.921875 C64.72351074 77.13424805 63.84936523 77.34662109 62.94873047 77.56542969 C57.60004817 78.89549131 52.29306694 80.38358821 46.9765625 81.8359375 C37.38180158 84.44100885 27.7520469 86.88517069 18.1015625 89.2734375 C18.98078369 89.37889893 19.86000488 89.48436035 20.76586914 89.59301758 C28.69341714 90.54527404 36.61992722 91.50554701 44.54528809 92.47584534 C49.08472907 93.03070338 53.62564868 93.5706677 58.16796875 94.1015625 C60.18755965 94.34586152 62.20709549 94.59061641 64.2265625 94.8359375 C65.13543213 94.93817627 66.04430176 95.04041504 66.98071289 95.14575195 C73.69768489 95.98098004 78.91179209 97.27003053 84.0390625 101.9609375 C86.76140104 106.33317819 86.74646021 108.194868 86.1015625 113.2734375 C84.23433671 117.83776721 81.46202097 120.05207187 77.1015625 122.2734375 C69.52011746 123.14025801 63.66734715 120.53137617 56.7265625 117.6796875 C55.5614917 117.21357056 54.3964209 116.74745361 53.19604492 116.26721191 C50.12109194 115.03415556 47.05124359 113.78939267 43.98345947 112.53863525 C40.84327169 111.26180412 37.69676787 110.00074026 34.55078125 108.73828125 C28.39515712 106.26439612 22.24600513 103.77495569 16.1015625 101.2734375 C18.48735237 104.34252495 20.88857407 107.16203402 23.74609375 109.796875 C24.76219727 110.74046875 24.76219727 110.74046875 25.79882812 111.703125 C26.84586914 112.66605469 26.84586914 112.66605469 27.9140625 113.6484375 C32.55853177 117.93966544 37.12924816 122.27273303 41.58081055 126.76416016 C43.35175651 128.52174371 45.19588634 130.16346971 47.1015625 131.7734375 C59.70261488 142.68290892 59.70261488 142.68290892 60.4765625 149.6484375 C59.9492262 154.74602177 57.76600582 157.42405603 54.4140625 161.1484375 C50.77012156 162.92116552 47.05521396 163.08591927 43.1015625 162.2734375 C36.30039375 159.11845089 33.28327838 152.91102573 29.4765625 146.7109375 C28.4200388 145.02436998 27.3635117 143.33780452 26.30648804 141.65155029 C25.24485866 139.95349123 24.18900098 138.25197421 23.13476562 136.54931641 C20.71066975 132.64363455 18.25566665 128.75820832 15.79541016 124.87524414 C13.91592073 121.9080141 12.04538713 118.93519729 10.17626953 115.96142578 C9.17261316 114.38503319 8.13817529 112.82835668 7.1015625 111.2734375 C7.36963089 112.88544341 7.6379103 114.49741423 7.90625 116.109375 C8.08897461 117.20733398 8.27169922 118.30529297 8.45996094 119.43652344 C8.9134747 122.14863237 9.36964671 124.86018917 9.82910156 127.57128906 C10.49882165 131.52546828 11.15941569 135.48110602 11.81591797 139.4375 C12.09035973 141.0821926 12.36771867 142.72640101 12.64794922 144.37011719 C16.48683117 166.91962914 16.48683117 166.91962914 13.9140625 173.1484375 C8.98354408 178.92904531 8.98354408 178.92904531 4.98828125 179.66015625 C-0.42262261 179.92388098 -3.7209453 178.94147943 -7.8984375 175.2734375 C-14.29753148 165.53010712 -8.99764576 145.0888794 -7.8984375 134.1484375 C-7.6109194 131.23369867 -7.32547221 128.31877673 -7.04248047 125.40359497 C-6.86742439 123.60583494 -6.68951544 121.80834965 -6.50830078 120.01119995 C-6.42821777 119.19910065 -6.34813477 118.38700134 -6.265625 117.55029297 C-6.19456543 116.84274872 -6.12350586 116.13520447 -6.05029297 115.40621948 C-5.88058819 113.02274723 -5.8738847 110.66214445 -5.8984375 108.2734375 C-6.21306442 108.9137944 -6.52769135 109.55415131 -6.85185242 110.21391296 C-9.82754189 116.26573018 -12.81298708 122.31262244 -15.80931377 128.35425091 C-17.3491936 131.4600361 -18.88531989 134.56755914 -20.4128418 137.67944336 C-22.17158671 141.26195738 -23.94667648 144.83615443 -25.72265625 148.41015625 C-26.26556808 149.52178635 -26.80847992 150.63341644 -27.36784363 151.7787323 C-30.50042181 158.04616301 -33.06813338 163.05589301 -39.2734375 166.6484375 C-42.89125149 167.50982178 -45.2985657 167.22077219 -48.8984375 166.2734375 C-51.80840294 164.41158042 -54.32712043 162.41607164 -55.8984375 159.2734375 C-56.81196095 154.30938557 -57.05837654 150.03075855 -54.20703125 145.7109375 C-51.84570526 143.14838547 -49.37923292 140.72004125 -46.8984375 138.2734375 C-45.45858339 136.54246535 -44.04199975 134.79189126 -42.6484375 133.0234375 C-38.53775942 127.93368372 -34.13725901 123.18431636 -29.65454102 118.42626953 C-25.11689651 113.58118195 -20.92605051 108.55435607 -16.8984375 103.2734375 C-27.10639597 108.04736727 -37.26040664 112.91277421 -47.3359375 117.9609375 C-48.73537598 118.65920654 -48.73537598 118.65920654 -50.16308594 119.37158203 C-54.02616 121.30449627 -57.87928544 123.24358302 -61.67578125 125.3046875 C-67.39207345 128.36106568 -71.38120905 130.39709758 -77.8984375 129.2734375 C-81.95733027 127.16882643 -84.2113739 125.50254716 -85.8984375 121.2734375 C-86.66686792 116.37166029 -86.42691218 112.41494281 -84.3359375 107.8984375 C-79.59362146 103.28498874 -72.139234 102.60382195 -65.8984375 101.2734375 C-63.70571568 100.79433255 -61.51300847 100.31516075 -59.3203125 99.8359375 C-54.6348489 98.81949905 -49.94605601 97.82101123 -45.25390625 96.8359375 C-36.78635881 95.05254703 -28.34275568 93.16314221 -19.8984375 91.2734375 C-20.98385582 91.11763214 -20.98385582 91.11763214 -22.09120178 90.9586792 C-28.93419783 89.9737607 -35.77501488 88.97480322 -42.61368656 87.96032333 C-46.12900912 87.439343 -49.6449372 86.92368531 -53.1628418 86.42041016 C-57.21389716 85.84061871 -61.26114901 85.23729866 -65.30859375 84.6328125 C-66.56301773 84.45659363 -67.81744171 84.28037476 -69.10987854 84.09881592 C-75.55191105 83.11734137 -80.59472047 82.15463904 -85.8984375 78.2734375 C-88.8726008 73.95610368 -89.5470924 70.46267674 -88.8984375 65.2734375 C-86.86213205 61.49172737 -84.81367879 58.17814948 -80.8984375 56.2734375 C-74.1652339 55.43930581 -69.06257691 56.97075586 -63.015625 59.78125 C-62.19828888 60.14435272 -61.38095276 60.50745544 -60.53884888 60.88156128 C-57.94309293 62.03835313 -55.35822646 63.21737288 -52.7734375 64.3984375 C-50.21607843 65.54958851 -47.65662365 66.69596574 -45.09674072 67.8414917 C-43.42805047 68.58834837 -41.76019106 69.33706437 -40.09320068 70.08770752 C-32.77777863 73.36852032 -25.37413336 76.37729441 -17.8984375 79.2734375 C-18.43270355 78.74583328 -18.9669696 78.21822906 -19.51742554 77.67463684 C-24.55725961 72.694977 -29.58979764 67.70808398 -34.61432457 62.71298695 C-37.19758704 60.14536345 -39.78355824 57.58059832 -42.37597656 55.0222168 C-44.87888669 52.55196303 -47.37434258 50.07439874 -49.86485672 47.59165001 C-51.27676702 46.18795966 -52.6962432 44.7918928 -54.11581421 43.39595032 C-54.97655548 42.53543564 -55.83729675 41.67492096 -56.72412109 40.78833008 C-57.48357025 40.03554276 -58.24301941 39.28275543 -59.02548218 38.50715637 C-61.42474931 35.64574894 -62.77420938 32.95529508 -63.05078125 29.2109375 C-62.47643979 24.03142181 -61.08099227 21.65931517 -56.8984375 18.2734375 C-53.72837431 16.16006204 -51.86416113 15.97652317 -48.12890625 15.8125 C-43.73464046 16.72059696 -40.59172665 19.36804035 -37.91064453 22.86938477 C-37.33169434 23.84963623 -36.75274414 24.8298877 -36.15625 25.83984375 C-35.48972412 26.95327148 -34.82319824 28.06669922 -34.13647461 29.21386719 C-33.43185195 30.42106235 -32.72751267 31.62842295 -32.0234375 32.8359375 C-31.28707631 34.07655204 -30.54950893 35.31645138 -29.81079102 36.55566406 C-28.27557205 39.13636174 -26.74846097 41.72159959 -25.22802734 44.31103516 C-22.90974991 48.25883966 -20.57200126 52.19486253 -18.23046875 56.12890625 C-14.43949206 62.50240763 -10.66395914 68.88485547 -6.8984375 75.2734375 C-8.55139585 64.88732639 -10.484305 54.55411478 -12.41235352 44.21630859 C-12.96482101 41.25260448 -13.51473741 38.28843437 -14.06445312 35.32421875 C-14.41651482 33.4322634 -14.76872302 31.54033531 -15.12109375 29.6484375 C-15.28464859 28.76615479 -15.44820343 27.88387207 -15.61671448 26.97485352 C-15.84716713 25.74206665 -15.84716713 25.74206665 -16.08227539 24.484375 C-16.28307457 23.40615479 -16.28307457 23.40615479 -16.4879303 22.30615234 C-16.76253983 20.9463641 -17.077098 19.59406492 -17.42991638 18.25244141 C-18.62590399 13.20066452 -18.53273656 9.51854306 -16.2109375 4.9609375 C-11.71355036 -0.26575566 -6.86599737 -2.62772739 0 0 Z " fill="#DB4C2D" transform="translate(96.8984375,6.7265625)"/>
</svg>
